<svg xmlns="http://www.w3.org/2000/svg" viewBox="0 0 1600 1000"><defs><linearGradient id="sky" x1="0" y1="0" x2="0" y2="1"><stop stop-color="#637269"/><stop offset=".55" stop-color="#c58d70"/><stop offset="1" stop-color="#302d27"/></linearGradient><filter id="grain"><feTurbulence baseFrequency=".65" numOctaves="3" stitchTiles="stitch"/><feColorMatrix values="1 0 0 0 0 0 1 0 0 0 0 0 1 0 0 0 0 0 .1 0"/></filter></defs><rect width="1600" height="1000" fill="url(#sky)"/><path d="M0 620 Q240 535 455 635T860 605T1250 635T1600 570V1000H0Z" fill="#4b5149"/><path d="M0 745 Q280 665 535 754T1030 730T1600 710V1000H0Z" fill="#242823"/><g fill="#161917"><path d="M707 760c-6-85 1-194 39-194 42 0 52 107 46 194h-85Z"/><circle cx="751" cy="528" r="45"/><path d="M796 764c3-88 6-183 48-183 38 0 53 100 49 183h-97Z"/><circle cx="846" cy="544" r="42"/></g><path d="M747 587c21 28 42 27 66 8" fill="none" stroke="#161917" stroke-width="19" stroke-linecap="round"/><rect width="1600" height="1000" filter="url(#grain)" opacity=".22"/></svg>
